<svg width="92" height="86" viewBox="0 0 92 86" fill="none" xmlns="http://www.w3.org/2000/svg">
    <path d="M73.7871 46.9633C73.7871 38.9544 73.7871 30.9456 73.7871 22.9343C73.7871 21.0917 74.1759 20.7115 76.0589 20.7091C79.2624 20.7091 82.4634 20.7067 85.6669 20.7091C87.2833 20.7091 87.7186 21.1527 87.7186 22.7783C87.7186 38.8886 87.7186 54.999 87.7186 71.1093C87.7186 72.7593 87.3151 73.1663 85.6816 73.1663C82.3558 73.1663 79.0325 73.1712 75.7068 73.1663C74.2517 73.1663 73.7871 72.7057 73.7871 71.2653C73.7871 63.1638 73.7871 55.0648 73.7871 46.9633ZM84.7303 70.2099V23.7069H76.7754V70.2099H84.7303Z" fill="#3A9C6F"></path>
    <path d="M54.7005 29.2786C51.4334 28.2232 48.1907 27.1704 44.9383 26.1443C44.75 26.0858 44.4126 26.1954 44.2659 26.3466C41.8376 28.8277 39.4973 29.1762 36.4748 27.419C34.6774 28.8131 32.8506 30.2267 31.0263 31.6452C27.6076 34.3018 26.4948 35.7085 23.0712 38.3603C22.7631 38.5991 22.428 38.8575 22.0637 38.9623C21.379 39.1572 20.7847 38.9257 20.4277 38.2847C20.0511 37.6071 20.188 36.9686 20.7652 36.4763C21.4841 35.8645 22.2446 35.3015 22.9905 34.7214C27.4191 31.2776 29.542 29.0812 33.9853 25.6544C34.4842 25.2693 34.626 24.9622 34.4597 24.3041C33.6356 21.0699 35.7485 17.9307 39.0205 17.4164C42.2117 16.9143 45.1609 19.2882 45.3932 22.5883C45.4274 23.0684 45.5888 23.2707 46.0266 23.4097C49.0442 24.3699 52.0521 25.3643 55.0771 26.3051C55.3265 26.3831 55.7765 26.2393 55.9599 26.0395C57.8037 24.0214 59.9803 23.5023 62.592 24.4699C62.8121 24.5527 63.2131 24.5186 63.3598 24.3724C67.7958 19.9268 72.2122 15.4593 76.6311 10.9942C76.6457 10.9796 76.6384 10.9406 76.6555 10.8017C75.9023 10.8626 75.1687 10.9406 74.4302 10.9747C73.3738 11.0235 72.7404 10.5433 72.6695 9.68054C72.5937 8.75926 73.1757 8.15481 74.2395 8.05976C76.1836 7.88428 78.1277 7.7088 80.0718 7.53819C81.7175 7.39439 82.3558 8.04026 82.1675 9.64886C81.9401 11.584 81.72 13.5217 81.4925 15.4569C81.3654 16.5439 80.7834 17.1069 79.8737 17.0265C78.9836 16.9485 78.4822 16.2392 78.5752 15.1741C78.6265 14.5989 78.695 14.0237 78.7488 13.4486C78.7537 13.3998 78.7072 13.3486 78.6485 13.2195C78.4578 13.3901 78.2793 13.5363 78.1179 13.6972C73.9705 17.8722 69.8255 22.0521 65.6707 26.2198C65.3186 26.5732 65.1645 26.8267 65.3969 27.3775C66.3457 29.6222 65.9568 31.7085 64.2646 33.4414C62.6237 35.1207 60.5867 35.5838 58.3809 34.76C56.1067 33.9094 54.901 32.1911 54.7323 29.7636C54.7249 29.6417 54.7151 29.5223 54.698 29.2786H54.7005ZM39.8494 25.591C41.3094 25.591 42.5101 24.3602 42.4856 22.8881C42.4636 21.4525 41.28 20.2948 39.8421 20.2973C38.4091 20.2973 37.2158 21.4672 37.1889 22.8954C37.162 24.3358 38.4018 25.5934 39.8494 25.591ZM60.3104 26.9023C58.8847 26.8974 57.6888 28.0721 57.6643 29.5028C57.6399 30.9847 58.8187 32.1911 60.2957 32.1936C61.7287 32.1936 62.927 31.0334 62.9612 29.6076C62.9979 28.1745 61.7556 26.9071 60.308 26.9023H60.3104Z" fill="#3A9C6F"></path>
    <path d="M32.882 54.0797C32.882 48.4765 32.882 42.8707 32.882 37.2675C32.882 35.5687 33.3026 35.1446 34.9703 35.1422C38.2643 35.1422 41.5583 35.1373 44.8547 35.1422C46.3391 35.1422 46.8306 35.6345 46.8306 37.1237C46.833 48.4838 46.833 59.8439 46.8306 71.204C46.8306 72.7004 46.3611 73.1635 44.8596 73.1659C41.5045 73.1684 38.1494 73.1708 34.7918 73.1659C33.3319 73.1659 32.8844 72.7224 32.882 71.2551C32.8771 65.53 32.8795 59.8024 32.8795 54.0773L32.882 54.0797ZM43.857 38.1278H35.8605V70.1876H43.857V38.1278Z" fill="#3A9C6F"></path>
    <path d="M67.2667 56.3978C67.2667 61.2991 67.2667 66.2005 67.2667 71.1043C67.2667 72.7616 66.8608 73.1686 65.2346 73.1686C61.9113 73.1686 58.588 73.1711 55.2622 73.1686C53.8096 73.1686 53.3181 72.6958 53.3181 71.2749C53.3132 61.4113 53.3132 51.5452 53.3181 41.6816C53.3181 40.2119 53.817 39.7294 55.3209 39.7269C58.6442 39.722 61.9675 39.722 65.2933 39.7269C66.7972 39.7294 67.2643 40.1924 67.2667 41.6938C67.2716 46.5951 67.2667 51.4965 67.2692 56.4002L67.2667 56.3978ZM56.2917 70.1878H64.2882V42.7101H56.2917V70.1878Z" fill="#3A9C6F"></path>
    <path d="M12.4275 60.9357C12.4275 57.4943 12.4226 54.0529 12.4275 50.6115C12.4275 49.271 12.9019 48.7908 14.2371 48.7884C17.6826 48.7811 21.1307 48.7787 24.5763 48.7884C25.8454 48.7908 26.3541 49.3002 26.3541 50.5603C26.359 57.5041 26.359 64.4478 26.3541 71.3892C26.3541 72.6541 25.8479 73.1611 24.5811 73.1635C21.1038 73.1708 17.6264 73.1732 14.149 73.1635C12.9312 73.1611 12.4299 72.6565 12.425 71.4403C12.4152 67.938 12.4226 64.4357 12.4226 60.9333L12.4275 60.9357ZM23.378 70.2047V51.7765H15.4133V70.2047H23.378Z" fill="#3A9C6F"></path>
    <path d="M23.7932 40.7238C23.7932 43.9077 21.2174 46.4887 18.0401 46.4887C14.8628 46.4887 12.2871 43.9077 12.2871 40.7238C12.2871 37.54 14.8628 34.959 18.0401 34.959C21.2174 34.959 23.7932 37.54 23.7932 40.7238ZM15.3264 40.7238C15.3264 42.2256 16.5414 43.4431 18.0401 43.4431C19.5389 43.4431 20.7538 42.2256 20.7538 40.7238C20.7538 39.222 19.5389 38.0046 18.0401 38.0046C16.5414 38.0046 15.3264 39.222 15.3264 40.7238Z" fill="#3A9C6F"></path>
</svg>