<svg xmlns="http://www.w3.org/2000/svg" viewBox="0 0 512 512" fill="#000000">
  <path d="M0 256c0 68.38 26.629 132.667 74.98 181.02C123.333 485.371 187.62 512 256 512s132.667-26.629 181.02-74.98C485.371 388.667 512 324.38 512 256s-26.629-132.667-74.98-181.02C388.667 26.629 324.38 0 256 0s-132.667 26.629-181.02 74.98C26.629 123.333 0 187.62 0 256zm93.16-93.16c34.132-34.132 79.16-52.954 127.84-52.954s93.708 18.822 127.84 52.954c34.132 34.132 52.954 79.16 52.954 127.84s-18.822 93.708-52.954 127.84c-34.132 34.132-79.16 52.954-127.84 52.954s-93.708-18.822-127.84-52.954C18.822 373.708 0 328.68 0 279s18.822-93.708 52.954-127.84zM256 93.16c88.093 0 162.84 64.629 176.84 148.84H79.16c14 84.211 88.747 148.84 176.84 148.84s162.84-64.629 176.84-148.84H432.84C418.84 157.789 344.093 93.16 256 93.16zm0 286.844c-57.97 0-104.843-46.873-104.843-104.844S198.03 170.316 256 170.316s104.843 46.873 104.843 104.844S313.97 379.004 256 379.004z"/>
</svg>
