<svg width="121" height="120" viewBox="0 0 121 120" fill="none" xmlns="http://www.w3.org/2000/svg">
<circle cx="60.5" cy="60" r="60" fill="#3A9C6F"/>
<g clip-path="url(#clip0_4818_9259)">
<path opacity="0.7" fill-rule="evenodd" clip-rule="evenodd" d="M60.9506 23.5135C40.551 23.5135 24.0137 40.0508 24.0137 60.4504C24.0137 80.85 40.551 97.3874 60.9506 97.3874C81.3502 97.3874 97.8875 80.85 97.8875 60.4504C97.8875 40.0508 81.3502 23.5135 60.9506 23.5135ZM70.2535 83.3333C70.5713 82.3799 70.3936 75.6518 70.3882 74.0304C73.7765 74.0143 77.1755 74.0304 80.5638 74.0304C85.1802 74.0304 84.5446 72.7268 84.5446 67.8357C84.5446 61.0537 84.5661 54.2664 84.5446 47.4845C84.5338 43.5576 80.8385 44.538 77.3156 44.538H41.7846C36.3386 44.538 37.362 45.2382 37.362 55.4461V70.6314C37.362 71.7841 37.3351 73.551 39.1935 73.9604C40.3247 74.2136 51.5453 74.025 54.3195 74.0196C56.9644 74.0196 56.4527 74.1435 58.1657 75.334L68.5136 82.6761C69.0846 83.064 69.4671 83.5596 70.2535 83.3226V83.3333Z" fill="white"/>
<g opacity="0.7">
<mask id="mask0_4818_9259" style="mask-type:luminance" maskUnits="userSpaceOnUse" x="18" y="18" width="85" height="84">
<path d="M102.391 18.1081H18.6074V101.892H102.391V18.1081Z" fill="white"/>
</mask>
<g mask="url(#mask0_4818_9259)">
<path fill-rule="evenodd" clip-rule="evenodd" d="M57.895 21.6114C36.4037 23.1406 20.2213 41.8023 21.7505 63.2936C23.2797 84.7848 41.9415 100.967 63.4327 99.438C84.9239 97.9088 101.106 79.2471 99.5772 57.7558C98.048 36.2646 79.3862 20.0822 57.895 21.6114ZM18.8776 63.498C17.2355 40.4201 34.6126 20.3805 57.6905 18.7384C80.7685 17.0963 100.808 34.4735 102.45 57.5514C104.092 80.6293 86.715 100.669 63.6371 102.311C40.5592 103.953 20.5197 86.5759 18.8776 63.498Z" fill="white"/>
</g>
</g>
<g opacity="0.7">
<mask id="mask1_4818_9259" style="mask-type:luminance" maskUnits="userSpaceOnUse" x="14" y="13" width="93" height="94">
<path d="M106.896 13.6036H14.1035V106.396H106.896V13.6036Z" fill="white"/>
</mask>
<g mask="url(#mask1_4818_9259)">
<path fill-rule="evenodd" clip-rule="evenodd" d="M60.4999 15.6828C36.0242 15.6828 16.1827 35.5243 16.1827 60C16.1827 84.4757 36.0242 104.317 60.4999 104.317C84.9756 104.317 104.817 84.4757 104.817 60C104.817 35.5243 84.9756 15.6828 60.4999 15.6828ZM14.1035 60C14.1035 34.376 34.8759 13.6036 60.4999 13.6036C86.124 13.6036 106.896 34.376 106.896 60C106.896 85.624 86.124 106.396 60.4999 106.396C34.8759 106.396 14.1035 85.624 14.1035 60Z" fill="white"/>
</g>
</g>
<g opacity="0.7">
<mask id="mask2_4818_9259" style="mask-type:luminance" maskUnits="userSpaceOnUse" x="10" y="10" width="101" height="100">
<path d="M110.5 10H10.5V110H110.5V10Z" fill="white"/>
</mask>
<g mask="url(#mask2_4818_9259)">
<path fill-rule="evenodd" clip-rule="evenodd" d="M25.8716 24.9312C6.7524 44.0504 6.7524 75.0487 25.8716 94.1679C44.9908 113.287 75.9891 113.287 95.1083 94.1679C114.228 75.0487 114.228 44.0504 95.1083 24.9312C75.9891 5.81199 44.9908 5.81199 25.8716 24.9312ZM25.1346 94.9049C5.60842 75.3787 5.60842 43.7204 25.1346 24.1942C44.6609 4.66801 76.3191 4.66801 95.8453 24.1942C115.372 43.7204 115.372 75.3787 95.8453 94.9049C76.3191 114.431 44.6609 114.431 25.1346 94.9049Z" fill="white"/>
</g>
</g>
</g>
<defs>
<clipPath id="clip0_4818_9259">
<rect width="100" height="100" fill="white" transform="translate(10.5 10)"/>
</clipPath>
</defs>
</svg>
