<?xml version="1.0" encoding="iso-8859-1"?>
<svg fill="#3A9C6F" height="50px" width="50px" version="1.1" id="Layer_1" xmlns="http://www.w3.org/2000/svg" xmlns:xlink="http://www.w3.org/1999/xlink" 
	 viewBox="0 0 512 512" xml:space="preserve">
<g>
	<g>
		<path d="M256,0c-4.513,0-8.17,3.658-8.17,8.17v108.936c0,4.512,3.657,8.17,8.17,8.17s8.17-3.658,8.17-8.17V8.17
			C264.17,3.658,260.513,0,256,0z"/>
	</g>
</g>
<g>
	<g>
		<path d="M193.629,131.63l-54.468-94.342c-2.255-3.908-7.254-5.246-11.161-2.99c-3.908,2.256-5.246,7.253-2.99,11.161
			l54.468,94.342c1.513,2.621,4.259,4.086,7.083,4.086c1.386,0,2.792-0.353,4.077-1.096
			C194.546,140.534,195.885,135.537,193.629,131.63z"/>
	</g>
</g>
<g>
	<g>
		<path d="M139.8,179.478L45.458,125.01c-3.911-2.258-8.907-0.917-11.161,2.99c-2.256,3.908-0.916,8.904,2.99,11.161l94.342,54.468
			c1.288,0.743,2.692,1.096,4.077,1.096c2.824,0,5.57-1.466,7.083-4.086C145.046,186.731,143.708,181.734,139.8,179.478z"/>
	</g>
</g>
<g>
	<g>
		<path d="M384,34.297c-3.911-2.257-8.906-0.917-11.161,2.99l-54.468,94.342c-2.256,3.908-0.917,8.904,2.99,11.161
			c1.288,0.743,2.692,1.096,4.078,1.096c2.824,0,5.57-1.466,7.083-4.086l54.468-94.342C389.246,41.55,387.908,36.554,384,34.297z"/>
	</g>
</g>
<g>
	<g>
		<path d="M477.703,128c-2.255-3.909-7.254-5.247-11.161-2.99L372.2,179.478c-3.908,2.256-5.246,7.253-2.99,11.161
			c1.513,2.621,4.259,4.086,7.083,4.086c1.386,0,2.792-0.353,4.078-1.096l94.342-54.468C478.62,136.904,479.959,131.908,477.703,128
			z"/>
	</g>
</g>
<g>
	<g>
		<path d="M117.106,247.83H8.17C3.657,247.83,0,251.488,0,256s3.657,8.17,8.17,8.17h108.936c4.513,0,8.17-3.658,8.17-8.17
			S121.62,247.83,117.106,247.83z"/>
	</g>
</g>
<g>
	<g>
		<path d="M142.79,321.362c-2.255-3.908-7.254-5.246-11.161-2.99l-94.342,54.468c-3.908,2.256-5.246,7.253-2.99,11.161
			c1.513,2.621,4.259,4.086,7.083,4.086c1.386,0,2.792-0.353,4.078-1.096l94.342-54.468
			C143.708,330.266,145.046,325.269,142.79,321.362z"/>
	</g>
</g>
<g>
	<g>
		<path d="M190.638,369.21c-3.91-2.258-8.906-0.917-11.161,2.99l-54.468,94.342c-2.256,3.908-0.917,8.904,2.99,11.161
			c1.288,0.743,2.692,1.096,4.078,1.096c2.824,0,5.57-1.466,7.083-4.086l54.468-94.342
			C195.885,376.463,194.546,371.466,190.638,369.21z"/>
	</g>
</g>
<g>
	<g>
		<path d="M256,386.723c-4.513,0-8.17,3.658-8.17,8.17V503.83c0,4.512,3.657,8.17,8.17,8.17s8.17-3.658,8.17-8.17V394.894
			C264.17,390.381,260.513,386.723,256,386.723z"/>
	</g>
</g>
<g>
	<g>
		<path d="M386.99,466.542L332.522,372.2c-2.255-3.908-7.255-5.247-11.161-2.99c-3.908,2.256-5.246,7.253-2.99,11.161l54.468,94.342
			c1.513,2.621,4.259,4.086,7.083,4.086c1.386,0,2.792-0.353,4.078-1.096C387.908,475.446,389.246,470.45,386.99,466.542z"/>
	</g>
</g>
<g>
	<g>
		<path d="M474.712,372.839l-94.342-54.468c-3.911-2.257-8.907-0.917-11.161,2.99c-2.256,3.908-0.917,8.904,2.99,11.161
			l94.342,54.468c1.288,0.743,2.692,1.096,4.078,1.096c2.824,0,5.57-1.466,7.083-4.086
			C479.959,380.092,478.619,375.096,474.712,372.839z"/>
	</g>
</g>
<g>
	<g>
		<path d="M503.83,247.83H394.894c-4.513,0-8.17,3.658-8.17,8.17s3.657,8.17,8.17,8.17H503.83c4.513,0,8.17-3.658,8.17-8.17
			S508.343,247.83,503.83,247.83z"/>
	</g>
</g>
</svg>