<svg width="88" height="81" viewBox="0 0 88 81" fill="none" xmlns="http://www.w3.org/2000/svg">
    <g clip-path="url(#clip0_4876_2410)">
        <path d="M0.162109 62.3171C0.380595 61.8256 0.555838 61.3064 0.828945 60.8496C1.71882 59.3612 3.03201 58.5559 4.75485 58.5121C5.85638 58.4844 6.96019 58.5075 8.17779 58.5075C8.17779 57.9122 8.17552 57.3745 8.17779 56.8392C8.19827 54.1556 9.90064 52.395 12.5543 52.3858C17.9482 52.3673 23.342 52.3788 28.7382 52.3788C34.1047 52.3788 39.4713 52.3788 44.8355 52.3788C48.2221 52.3788 49.979 54.151 50.0086 57.5822C50.0109 57.8614 50.0337 58.1429 50.0473 58.4106C52.8285 58.849 54.697 57.2799 54.7015 54.5386C54.7083 48.0777 54.7083 41.6168 54.7015 35.1559C54.6992 32.65 53.2472 31.1824 50.7802 31.1824C44.3348 31.1778 37.8895 31.194 31.4465 31.1732C29.4187 31.1663 28.0509 32.0754 27.2953 33.9791C26.988 34.7521 26.6694 35.5251 26.3075 36.2727C25.6521 37.6295 24.5915 38.5663 23.1964 39.0578C22.7048 39.2309 22.5478 39.4501 22.5409 39.9693C22.4931 43.5505 21.8377 44.2173 18.0529 44.5127C18.0529 45.4057 18.0597 46.3171 18.0529 47.2263C18.0438 48.2439 17.5772 48.823 16.7829 48.823C15.9841 48.823 15.513 48.2462 15.5039 47.2309C15.4948 46.3425 15.5039 45.4541 15.5039 44.4573C15.0487 44.4573 14.6618 44.4711 14.2749 44.455C12.3131 44.3742 11.0682 43.0844 11.0181 41.0953C11.0181 41.0099 11.0044 40.92 11.0181 40.8369C11.1797 39.8193 10.8884 39.2563 9.83464 38.7948C7.73399 37.8741 6.63474 36.0696 6.62563 33.7206C6.59832 27.0013 6.58239 20.2796 6.62563 13.5603C6.6575 8.93842 10.1146 5.51414 14.7346 5.43107C16.4939 5.39877 18.2554 5.42415 20.0147 5.42415C34.3801 5.42415 48.7478 5.42415 63.1132 5.42415C63.4796 5.42415 63.846 5.42415 64.3445 5.42415C64.3445 4.73652 64.3354 4.1135 64.3445 3.4928C64.3809 1.423 65.6189 0.163117 67.6604 0.15158C70.0456 0.137735 72.4307 0.13312 74.8158 0.15158C76.7526 0.167732 78.0066 1.42992 78.0635 3.38665C78.0817 4.01659 78.0658 4.64653 78.0658 5.42415C79.1127 5.42415 80.0913 5.42415 81.07 5.42415C82.8861 5.42876 84.4656 6.01947 85.7264 7.38319C86.9167 8.66845 87.3969 10.2098 87.3947 11.9612C87.3833 23.1224 87.3878 34.2837 87.3878 45.4472C87.3878 47.0624 87.3924 48.6777 87.3878 50.2929C87.3833 51.3289 86.8644 51.9473 86.0428 51.9243C85.2622 51.9035 84.8115 51.3197 84.8115 50.2883C84.8161 37.5972 84.8275 24.9084 84.8343 12.2173C84.8343 9.39761 83.4847 8.02005 80.7149 8.02005C64.9294 8.02005 49.1438 8.02005 33.3582 8.02005H32.3227C32.3227 9.50606 32.3227 10.909 32.3227 12.3119C32.3227 12.5427 32.3295 12.7734 32.3227 13.0042C32.2886 14.0149 31.8061 14.5825 30.9959 14.5594C30.2198 14.5387 29.7805 14.001 29.7737 13.0134C29.7623 11.4005 29.7714 9.78757 29.7714 8.07082C29.4232 8.05236 29.1228 8.02236 28.8247 8.02236C24.2251 8.02005 19.6255 8.01544 15.0259 8.02236C11.446 8.02928 9.17235 10.3344 9.17008 13.971C9.16325 20.4019 9.16553 26.8352 9.17008 33.2661C9.17008 35.5897 10.4013 36.838 12.6954 36.8473C15.4219 36.8565 18.1462 36.8403 20.8727 36.8542C22.5341 36.8634 23.6948 36.1412 24.3025 34.5467C24.4254 34.2237 24.5824 33.9145 24.6962 33.5914C25.5588 31.1271 27.0904 29.3641 29.7714 28.7181C29.7714 28.395 29.7714 28.0881 29.7714 27.7812C29.7714 25.0999 29.7669 22.4164 29.7714 19.7351C29.7737 18.6552 30.2539 18.0391 31.0528 18.0552C31.8448 18.0691 32.3181 18.6967 32.3227 19.7743C32.3295 22.3702 32.325 24.9661 32.325 27.562C32.325 27.8712 32.325 28.1827 32.325 28.5911H33.4015C39.164 28.5911 44.9288 28.5888 50.6914 28.5911C54.6833 28.5911 57.2551 31.1847 57.2596 35.2274C57.2664 41.6583 57.2687 48.0916 57.2596 54.5225C57.2528 58.4636 54.6742 61.0849 50.8052 61.1034C48.675 61.1126 46.547 61.1034 44.4168 61.1034H43.5019C43.5019 61.5095 43.5019 61.8187 43.5019 62.1302C43.5019 64.4954 43.5269 66.8605 43.4928 69.2257C43.4563 71.7662 41.7289 73.543 39.246 73.5476C30.3017 73.5683 21.3597 73.5683 12.4155 73.5476C9.95526 73.5406 8.2051 71.6993 8.18689 69.1934C8.16869 66.5421 8.18234 63.8908 8.18234 61.1588C6.88281 61.1588 5.61286 61.0688 4.36112 61.1888C3.41208 61.2788 2.74069 62.2064 2.73386 63.2355C2.71338 66.4083 2.65648 69.5833 2.75435 72.7515C2.84766 75.742 5.34431 78.1417 8.29386 78.2756C8.49186 78.2848 8.69214 78.2894 8.89014 78.2894C32.2271 78.2894 55.5664 78.2894 78.9033 78.2894C81.7482 78.2894 83.8943 76.718 84.5589 74.1175C84.7273 73.4576 84.7728 72.7492 84.7774 72.0639C84.8001 67.2182 84.7979 62.3725 84.8024 57.5268C84.8024 57.2384 84.7933 56.9499 84.8161 56.6615C84.8753 55.907 85.3282 55.4893 86.0291 55.4616C86.7301 55.4339 87.2058 55.8424 87.3582 56.5554C87.4106 56.8046 87.3856 57.0722 87.3856 57.3307C87.3856 62.2917 87.3901 67.2528 87.3856 72.2139C87.381 77.3203 83.9103 80.8784 78.8897 80.8784C55.58 80.8853 32.2704 80.8853 8.9607 80.8784C4.42713 80.8784 1.3433 78.3333 0.296387 73.7783C0.27818 73.7022 0.209903 73.6399 0.164385 73.5706C0.164385 69.821 0.164385 66.0714 0.164385 62.3217L0.162109 62.3171ZM18.1439 70.9078C18.2236 70.9217 18.3055 70.9517 18.3874 70.9517C25.3107 70.954 32.2317 70.9609 39.1549 70.9517C40.3293 70.9517 40.9165 70.3263 40.9347 69.1172C40.9574 67.7351 40.9347 66.3506 40.9438 64.9661C40.9665 61.6664 40.9961 58.369 41.0257 55.0232H18.1189C18.0028 55.7985 17.732 56.4169 16.9013 56.4884C15.868 56.5761 15.5926 55.7985 15.3924 54.9794C14.35 54.9794 13.3577 54.9494 12.3677 54.9886C11.3754 55.0255 10.7518 55.6278 10.7473 56.62C10.7268 60.8565 10.7245 65.093 10.7473 69.3295C10.7518 70.264 11.3868 70.8986 12.3131 70.9401C13.3554 70.9863 14.4023 70.9517 15.447 70.9517C15.5471 70.1048 15.8271 69.4772 16.7147 69.4126C17.468 69.3572 17.8731 69.7933 18.1439 70.9101V70.9078ZM75.5122 5.38492C75.5122 4.79882 75.4804 4.30964 75.5191 3.82738C75.5873 2.99669 75.2437 2.70826 74.4335 2.72902C72.6765 2.77287 70.9172 2.71749 69.1602 2.74748C66.7319 2.78902 66.8366 2.19369 66.9276 5.20955C66.9276 5.25801 66.9822 5.30185 67.0346 5.38492H75.5145H75.5122ZM13.5671 39.4778C13.5671 39.9254 13.5648 40.2946 13.5671 40.6615C13.5762 41.7483 13.6786 41.8568 14.7324 41.8614C15.8088 41.866 16.8831 41.8614 17.9596 41.8614C20.1353 41.8614 20.1535 41.8406 19.9623 39.6462C19.9578 39.5978 19.9054 39.5562 19.8531 39.4755H13.5694L13.5671 39.4778ZM47.4209 58.4613C47.4346 57.2822 47.6918 56.0939 46.5356 55.2978C45.8802 54.8455 44.9266 54.8825 44.2984 55.3786C43.2447 56.2139 43.5246 57.3561 43.5132 58.4613H47.4209Z" fill="#3A9C6F"></path>
        <path d="M80.9037 24.3035C80.9037 26.9318 80.9083 29.56 80.9037 32.1906C80.897 34.7251 79.4725 36.1754 76.9819 36.1799C72.8505 36.1868 68.7213 36.1891 64.5899 36.1799C62.1579 36.1754 60.7312 34.7114 60.7266 32.2203C60.7199 26.934 60.7176 21.6477 60.7266 16.3614C60.7312 13.8796 62.1556 12.4179 64.6034 12.4064C68.7348 12.3904 72.864 12.3927 76.9954 12.4064C79.486 12.4156 80.897 13.875 80.9037 16.4186C80.9105 19.0469 80.9037 21.6752 80.9037 24.3058V24.3035ZM78.3748 24.2714C78.3748 21.7004 78.3748 19.1293 78.3748 16.5582C78.3748 15.2703 78.0976 14.9775 76.858 14.9752C72.8415 14.9707 68.8227 14.9707 64.8062 14.9752C63.5418 14.9752 63.2578 15.2612 63.2555 16.5238C63.2533 21.6935 63.2533 26.8654 63.2555 32.0351C63.2555 33.3229 63.5305 33.6065 64.7724 33.6065C68.7889 33.6088 72.8077 33.6088 76.8241 33.6065C78.1179 33.6065 78.3748 33.3343 78.3748 31.9824C78.3771 29.4114 78.3748 26.8403 78.3748 24.2692V24.2714Z" fill="#3A9C6F"></path>
        <path d="M78.0218 53.8594C78.0151 58.0083 74.7566 61.4233 70.8047 61.4186C66.8595 61.4139 63.5987 57.9824 63.6055 53.8406C63.61 49.6964 66.8774 46.2744 70.8249 46.2791C74.7746 46.2861 78.0286 49.7106 78.0241 53.8594H78.0218ZM75.5039 53.8053C75.4815 51.1029 73.3204 48.885 70.7508 48.925C68.2105 48.965 66.1234 51.1852 66.1234 53.85C66.1234 56.5524 68.2598 58.7867 70.8338 58.7726C73.4079 58.7609 75.5263 56.5054 75.5017 53.8053H75.5039Z" fill="#3A9C6F"></path>
        <path d="M18.1723 62.8189C18.1723 63.3823 18.2029 63.9456 18.1646 64.5067C18.1136 65.2261 17.5013 65.7397 16.7589 65.7442C16.0216 65.7487 15.3659 65.2352 15.3378 64.5203C15.2919 63.3958 15.2893 62.2692 15.3404 61.147C15.3735 60.4208 16.0139 59.9592 16.792 59.9773C17.5676 59.9954 18.1238 60.475 18.1697 61.2194C18.2029 61.7511 18.1774 62.2872 18.1723 62.8212V62.8189Z" fill="#3A9C6F"></path>
        <path d="M71.1675 25.3765C72.2636 25.3765 73.3596 25.3637 74.4557 25.3816C75.3234 25.3943 75.8308 25.9072 75.8593 26.7415C75.8879 27.5962 75.3409 28.2264 74.4667 28.2367C72.2745 28.2622 70.0824 28.2622 67.8902 28.2367C67.0072 28.2264 66.469 27.6141 66.4888 26.7517C66.5086 25.9199 67.0204 25.3969 67.8792 25.3816C68.9753 25.3637 70.0714 25.3765 71.1675 25.3765Z" fill="#3A9C6F"></path>
        <path d="M71.1371 23.2047C70.0458 23.2047 68.9523 23.2175 67.861 23.1996C67.0222 23.1869 66.504 22.6427 66.4886 21.8074C66.4732 20.9772 66.9958 20.3513 67.8127 20.3437C70.0502 20.3181 72.2899 20.3207 74.5274 20.3437C75.342 20.3513 75.8712 20.9772 75.8602 21.7997C75.8492 22.6325 75.3288 23.1869 74.4922 23.1996C73.3724 23.2175 72.2547 23.2047 71.1349 23.2047H71.1371Z" fill="#3A9C6F"></path>
    </g>
        <defs>
            <clipPath id="clip0_4876_2410">
                <rect width="87.2326" height="80.7442" fill="white" transform="translate(0.162109 0.139404)"></rect>
            </clipPath>
        </defs>
</svg>