<svg width="77" height="78" viewBox="0 0 77 78" fill="none" xmlns="http://www.w3.org/2000/svg">
    <g clip-path="url(#clip0_4876_2368)">
        <path d="M39.9698 0.976807C41.5243 1.3191 43.1381 1.4982 44.6274 2.02955C52.8287 4.95495 57.7234 10.7699 59.0448 19.4685C59.8171 24.5492 58.6735 29.2955 55.9772 33.6557C54.8711 35.4448 53.7531 37.2259 52.6094 39.0627C52.8504 39.2179 53.044 39.3553 53.2494 39.4727C56.7871 41.4846 60.3188 43.5065 63.8703 45.4946C64.4926 45.8429 64.8679 46.2986 65.1187 46.9673C68.6544 56.4201 72.2119 65.865 75.7653 75.3098C75.8424 75.5148 75.955 75.7058 76.0518 75.9029V77.3954H74.5723C74.5407 77.3596 74.517 77.3098 74.4775 77.2879C68.6702 73.9864 62.861 70.6889 57.0616 67.3754C56.6864 67.1605 56.4157 67.1923 56.0602 67.3953C50.4307 70.6093 44.7933 73.8093 39.1599 77.0173C38.9762 77.1228 38.8143 77.268 38.6444 77.3954H37.7575C37.6706 77.3178 37.5955 77.2203 37.4987 77.1646C31.7586 73.8969 26.0146 70.6351 20.2804 67.3555C19.9229 67.1505 19.674 67.1943 19.3461 67.3834C16.9107 68.7844 14.4633 70.1655 12.0239 71.5585C8.62446 73.5008 5.229 75.4491 1.83156 77.3954H1.09282C0.277036 76.7467 0.201977 76.48 0.573324 75.4889C4.15644 65.9525 7.74547 56.4161 11.3207 46.8757C11.5419 46.2867 11.8738 45.8787 12.4308 45.5663C16.0001 43.5643 19.5516 41.5284 23.109 39.5025C23.3204 39.3811 23.5278 39.2518 23.8043 39.0846C23.5811 38.7224 23.3757 38.3901 23.1702 38.0597C22.2399 36.5672 21.2977 35.0806 20.3772 33.5821C12.2728 20.3839 20.1303 3.3828 35.3457 1.16387C35.7072 1.11213 36.0627 1.04049 36.4222 0.976807C37.6054 0.976807 38.7886 0.976807 39.9698 0.976807ZM19.3501 22.2049C19.3521 25.9581 20.3713 29.4029 22.3584 32.5751C27.2393 40.3682 32.1043 48.1713 36.9773 55.9703C37.799 57.2878 38.5851 57.2937 39.4009 55.9902C44.2758 48.1932 49.1468 40.3921 54.0217 32.597C56.5264 28.593 57.4528 24.2526 56.8503 19.5541C55.5328 9.28733 45.5755 1.76487 35.4464 3.41265C26.0956 4.93306 19.4489 12.6943 19.3501 22.2049ZM36.9555 74.267C37.0187 74.1616 37.0642 74.1217 37.0642 74.0819C37.0741 69.1824 37.0839 64.2829 37.0701 59.3833C37.0701 59.1982 36.8568 58.9893 36.7027 58.8301C36.2128 58.3206 35.5946 57.9007 35.2232 57.3176C32.2604 52.6509 29.3449 47.9543 26.4136 43.2677C26.2753 43.0468 26.1351 42.8299 25.9099 42.4737C25.8309 42.7762 25.7894 42.9075 25.7618 43.0429C25.2285 45.5444 24.705 48.0479 24.1638 50.5454C23.9959 51.3215 23.4329 51.7116 22.793 51.5504C22.1767 51.3952 21.8606 50.82 22.0088 50.0857C22.2004 49.1364 22.4078 48.1912 22.6073 47.2439C22.9826 45.4528 23.3559 43.6598 23.749 41.7792C23.5436 41.8568 23.427 41.8846 23.3283 41.9404C20.154 43.7434 16.9778 45.5424 13.8174 47.3713C13.5547 47.5225 13.3354 47.8568 13.2229 48.1553C10.1099 56.3902 7.01068 64.6311 3.91348 72.872C3.82459 73.1068 3.76731 73.3536 3.6804 73.6461C3.82657 73.6063 3.87792 73.6023 3.91743 73.5804C8.7647 70.8262 13.614 68.0779 18.4474 65.2998C18.6943 65.1585 18.8918 64.7844 18.957 64.4838C19.6582 61.2818 20.3219 58.0738 21.0073 54.8698C21.195 53.9942 21.6829 53.6241 22.3742 53.7753C23.0576 53.9265 23.3362 54.4798 23.1525 55.3534C22.5164 58.3903 21.8843 61.4291 21.2266 64.462C21.1081 65.0092 21.1634 65.3237 21.7184 65.6341C26.5598 68.3486 31.3774 71.1048 36.203 73.8491C36.4518 73.9904 36.7067 74.1257 36.9555 74.263V74.267ZM50.5018 42.4438C50.2529 42.8339 50.1107 43.0528 49.9725 43.2737C47.0688 47.9205 44.1771 52.5713 41.2517 57.2042C40.9041 57.7554 40.4438 58.2888 39.9164 58.6569C39.4779 58.9634 39.2903 59.2221 39.2923 59.7654C39.314 64.3426 39.3041 68.9197 39.3061 73.4969C39.3061 73.7357 39.3278 73.9725 39.3456 74.2969C39.6419 74.1476 39.8611 74.0481 40.0685 73.9307C44.8941 71.1884 49.7117 68.4302 54.5531 65.7177C55.1615 65.3754 55.2918 65.057 55.1476 64.3903C53.9091 58.639 52.7082 52.8778 51.4954 47.1205C51.1813 45.628 50.8594 44.1354 50.4999 42.4458L50.5018 42.4438ZM52.6786 41.7195C52.6983 41.9762 52.6924 42.0757 52.7141 42.1712C54.2884 49.6519 55.8587 57.1345 57.4567 64.6112C57.5179 64.8958 57.7905 65.2142 58.0513 65.3635C62.7366 68.052 67.4337 70.7187 72.1289 73.3874C72.2909 73.479 72.4627 73.5526 72.7333 73.6839C72.6523 73.4193 72.6148 73.2561 72.5555 73.0989C69.4169 64.7426 66.2802 56.3843 63.1217 48.0379C63.0052 47.7295 62.701 47.4329 62.4087 47.2618C60.1924 45.9722 57.9564 44.7145 55.7264 43.4468C54.7427 42.8876 53.759 42.3304 52.6805 41.7175L52.6786 41.7195Z" fill="#3A9C6F"></path>
        <path d="M50.3865 22.2349C50.3963 29.0051 44.9427 34.5414 38.2426 34.5593C31.4971 34.5773 26.0138 29.0668 26.0039 22.2567C25.994 15.4865 31.4477 9.95216 38.1478 9.93425C44.8972 9.91634 50.3766 15.4248 50.3865 22.2349ZM48.1682 22.2846C48.1999 16.7761 43.7634 12.2188 38.3256 12.1731C32.7731 12.1253 28.2814 16.5691 28.2202 22.1692C28.1609 27.6956 32.6269 32.2847 38.0984 32.3205C43.639 32.3563 48.1366 27.8727 48.1663 22.2846H48.1682Z" fill="#3A9C6F"></path>
        <path d="M45.9453 22.219C45.971 26.5255 42.4906 30.0679 38.2201 30.0798C33.9456 30.0937 30.4652 26.5992 30.4415 22.2728C30.4178 17.9643 33.8962 14.4259 38.1667 14.414C42.4451 14.4001 45.9196 17.8886 45.9453 22.219ZM43.7291 22.2529C43.735 19.1663 41.256 16.6548 38.2003 16.6508C35.1446 16.6468 32.6617 19.1503 32.6578 22.2369C32.6538 25.3196 35.1367 27.837 38.1865 27.841C41.2422 27.845 43.7231 25.3434 43.7291 22.2529Z" fill="#3A9C6F"></path>
    </g>
    <defs>
        <clipPath id="clip0_4876_2368">
            <rect width="75.6977" height="76.4186" fill="white" transform="translate(0.349609 0.976807)"></rect>
        </clipPath>
    </defs>
</svg>