<svg width="89" height="88" viewBox="0 0 89 88" fill="none" xmlns="http://www.w3.org/2000/svg">
    <g clip-path="url(#clip0_4876_2424)">
        <path d="M26.4643 39.7073C25.9983 39.7073 25.6706 39.7073 25.3429 39.7073C18.0149 39.7073 10.6868 39.7073 3.35636 39.7073C3.14518 39.7073 2.93158 39.6976 2.7204 39.7073C2.01891 39.7412 1.39024 39.6176 1.0043 38.9411C0.611074 38.25 0.91206 37.6681 1.26887 37.0789C2.36602 35.2652 3.43403 33.4345 4.55059 31.6353C4.84672 31.1576 4.85158 30.8012 4.55302 30.3235C3.49714 28.6286 2.48496 26.9046 1.46306 25.1879C1.06498 24.5187 0.523691 23.8737 1.00187 23.0154C1.49947 22.1206 2.35631 22.2467 3.16946 22.2467C10.5582 22.2467 17.9469 22.2467 25.3356 22.2467H26.4813C26.4813 21.2623 26.4959 20.336 26.4765 19.4073C26.457 18.389 26.8964 17.7779 27.8964 17.4797C29.0834 17.1281 30.2194 16.5898 31.416 16.2867C32.7583 15.9472 33.7171 15.2344 34.4647 14.0802C35.1541 13.0157 36.0133 12.0604 36.7391 11.0177C37.3168 10.1885 38.0207 10.0187 38.948 10.3146C40.5039 10.8116 42.0622 11.299 43.6399 11.7161C44.1327 11.847 44.7152 11.8591 45.2056 11.7306C46.7542 11.3233 48.2761 10.8189 49.8102 10.3582C51.0724 9.97994 51.3928 10.0891 52.2083 11.1584C52.4098 11.4227 52.6453 11.67 52.803 11.961C54.3808 14.8367 56.8032 16.5267 60.0024 17.1572C60.3835 17.2323 60.7427 17.4166 61.119 17.533C61.9515 17.7876 62.3618 18.3526 62.3666 19.2158C62.3715 20.1833 62.3666 21.1507 62.3666 22.2467H63.505C70.8646 22.2467 78.2218 22.2467 85.5814 22.2467C85.7926 22.2467 86.0062 22.2467 86.2173 22.2467C87.8825 22.2685 88.4869 23.3427 87.63 24.7927C86.5353 26.6428 85.4357 28.4904 84.3046 30.3163C84.0109 30.7915 83.9988 31.148 84.2973 31.628C85.4309 33.4539 86.5305 35.3015 87.6252 37.1516C88.5039 38.638 87.8825 39.7049 86.1372 39.7049C78.6272 39.7097 71.1171 39.7049 63.607 39.7049H62.3715C62.3715 40.6893 62.3569 41.6156 62.3763 42.5442C62.3982 43.5626 61.9443 44.1664 60.9564 44.4792C59.4296 44.9617 57.9149 45.4879 56.4246 46.0722C55.9245 46.2686 55.4197 46.6154 55.0798 47.0276C54.0628 48.2691 53.1307 49.576 52.1598 50.8563C51.4122 51.8407 51.0311 51.9595 49.8174 51.5934C48.2543 51.123 46.7008 50.6138 45.1279 50.187C44.6934 50.0682 44.1691 50.0803 43.7322 50.1992C42.1569 50.6259 40.6034 51.1278 39.0378 51.5958C37.8096 51.9644 37.4503 51.848 36.6978 50.8611C36.5328 50.6453 36.3726 50.4247 36.2051 50.2089C35.2075 48.914 34.4186 47.3355 33.1516 46.4093C31.9136 45.5049 30.1878 45.2672 28.6756 44.7411C27.2289 44.2383 26.4926 43.2054 26.4667 41.6422C26.457 41.0385 26.4667 40.4371 26.4667 39.7073H26.4643ZM50.0602 48.6328C50.1791 48.5285 50.349 48.417 50.4728 48.2666C50.7228 47.9635 50.9898 47.6629 51.1792 47.3234C52.6404 44.6853 54.8565 43.1553 57.7863 42.457C59.5218 42.0423 59.631 41.8847 59.4757 40.0783C59.2281 37.2025 59.9806 34.7754 61.8593 32.5713C63.1312 31.0776 63.1264 30.8788 61.8496 29.3658C60.0073 27.1835 59.2305 24.7975 59.4733 21.946C59.6359 20.0644 59.5218 19.8947 57.6795 19.4583C54.8347 18.7866 52.7715 17.2566 51.2544 14.7737C50.3078 13.2242 50.1306 13.1685 48.4169 13.8741C45.7274 14.9822 43.1569 14.9773 40.4699 13.8644C38.7441 13.1515 38.5572 13.2 37.6202 14.7543C36.0934 17.2857 33.9768 18.7963 31.1175 19.4898C29.3383 19.9214 29.2242 20.0741 29.3844 21.9218C29.6295 24.7684 28.8746 27.1617 27.025 29.3464C25.7288 30.8764 25.7264 31.0801 27.0372 32.627C28.8674 34.7875 29.6125 37.1516 29.3819 39.9643C29.2266 41.8799 29.3334 42.035 31.2243 42.503C33.9865 43.1844 36.0303 44.6368 37.528 47.0688C38.5572 48.7395 38.7489 48.8098 40.5743 48.0484C43.2491 46.9354 45.8148 46.9621 48.4266 48.1139C48.9218 48.3321 49.4606 48.4436 50.0577 48.6303L50.0602 48.6328ZM62.5268 25.1855C63.5706 26.6864 64.5196 28.0491 65.4663 29.4094C66.5125 30.9127 66.5125 31.0413 65.4736 32.5349C64.5172 33.9122 63.5584 35.287 62.5462 36.7418H83.9915C83.3167 35.6143 82.6905 34.5887 82.0812 33.5533C80.3433 30.5903 80.3384 31.3686 82.0739 28.4153C82.6929 27.3629 83.3288 26.3179 84.0085 25.1831H62.5292L62.5268 25.1855ZM4.84915 25.1831C5.83221 26.8246 6.69876 28.3425 7.63813 29.8168C8.16243 30.6412 8.14543 31.354 7.62114 32.1663C6.78614 33.4612 6.01911 34.802 5.23267 36.1284C5.12101 36.3151 5.05062 36.526 4.96566 36.72H26.2944C25.4691 35.5295 24.7142 34.4359 23.9521 33.3448C22.1558 30.7721 22.1656 31.1746 23.969 28.5874C24.7361 27.4866 25.4958 26.3809 26.326 25.1831H4.85158H4.84915Z" fill="#3A9C6F"></path>
        <path d="M37.1396 87.6861H34.3433C34.3433 86.8932 34.3214 86.1463 34.3457 85.4044C34.4574 82.0122 34.7292 78.5933 33.8554 75.2738C33.4622 73.7826 32.802 72.3011 31.9767 70.9965C30.4742 68.6179 28.7653 66.3701 27.1293 64.0763C26.4837 63.1719 25.5055 63.0701 24.9375 63.8169C24.5321 64.3527 24.6341 64.8765 24.952 65.4196C25.8866 67.0127 26.8502 68.5912 27.707 70.2255C28.1148 71.0038 28.3042 71.8961 28.6416 72.8757H25.5443C25.5929 71.6852 24.8355 71.2705 23.8088 70.9505C20.896 70.0412 18.0172 69.0204 15.1142 68.0772C13.983 67.711 13.0655 67.0903 12.3009 66.181C10.3712 63.8848 8.40752 61.6176 6.45354 59.3408C6.23751 59.0886 6.02633 58.7104 5.75933 58.6546C5.27387 58.5552 4.63063 58.4849 4.27382 58.7273C3.9704 58.9359 3.87817 59.6002 3.88059 60.061C3.88059 60.3737 4.18401 60.7035 4.39033 60.9993C6.86861 64.5516 9.26921 68.162 11.8761 71.6173C12.9903 73.0915 14.5486 74.2287 15.8861 75.5381C17.9396 77.5458 20.0537 79.5001 21.998 81.6096C23.2311 82.9481 24.0612 84.5969 24.3379 86.4543C24.3865 86.7768 24.3913 87.1041 24.4253 87.5648C23.4544 87.5042 22.5611 87.4484 21.6169 87.3878C21.0489 84.2938 18.9129 82.2619 16.8011 80.2227C16.1264 79.5704 15.42 78.9448 14.687 78.3605C11.7014 75.9842 9.15998 73.2322 7.0992 69.9951C5.3928 67.3134 3.4461 64.7892 1.66446 62.1559C-0.0492173 59.6221 1.05521 56.4626 3.90001 55.6552C5.37824 55.2357 6.72054 55.5558 7.86623 56.5887C8.08226 56.7851 8.20605 57.0858 8.43907 57.4398C8.55559 56.436 8.54102 55.6964 8.74006 55.0223C9.15998 53.6136 10.4901 52.6582 11.9271 52.5879C13.5194 52.5103 14.8933 53.3177 15.5147 54.7192C15.6603 55.049 15.7987 55.3982 15.8521 55.7522C16.454 59.6778 18.6022 62.9658 20.3547 66.3992C20.6678 67.0127 21.7941 67.2115 22.5442 67.6019C22.5976 67.5389 22.651 67.4758 22.7019 67.4128C22.5611 67.1388 22.4204 66.8648 22.2796 66.5908C21.2528 64.5855 21.8451 62.2359 23.6753 61.0648C25.5273 59.8791 27.9279 60.2671 29.2654 62.0953C31.2145 64.7577 33.1175 67.4588 34.9647 70.1939C36.2075 72.0343 36.7439 74.156 37.0473 76.3358C37.574 80.1063 37.3192 83.8816 37.1396 87.6861ZM16.3448 65.4487C16.3739 65.2523 16.4079 65.1869 16.3861 65.1481C14.8884 62.282 13.483 59.3844 12.915 56.1498C12.8689 55.8952 12.3155 55.7279 11.9975 55.5194C11.8155 55.8492 11.4562 56.1911 11.4805 56.5039C11.5654 57.5538 11.7718 58.5964 11.9611 59.6366C12.0946 60.3737 12.0849 61.2248 12.4684 61.8092C13.1748 62.8858 14.0874 63.8387 14.9928 64.7698C15.3156 65.102 15.8618 65.216 16.3424 65.4463L16.3448 65.4487Z" fill="#3A9C6F"></path>
        <path d="M54.6046 87.6836H51.6045C51.6045 84.6891 51.5511 81.7284 51.6166 78.7703C51.7089 74.6118 53.0366 70.8971 55.6678 67.6286C56.9955 65.9797 58.1291 64.1782 59.3597 62.4517C60.8574 60.3495 63.2459 59.7942 65.229 61.0745C67.1757 62.3329 67.6611 64.6801 66.4378 66.9108C66.3528 67.066 66.2776 67.2285 66.1416 67.5001C67.5058 67.1703 68.751 66.9108 69.1539 65.376C69.2656 64.9468 69.5326 64.554 69.7462 64.1539C71.2293 61.3727 72.5691 58.5479 73.1687 55.4079C73.4721 53.81 74.7853 52.7625 76.2514 52.6097C77.851 52.4448 79.3171 53.1335 79.9384 54.535C80.2807 55.306 80.3414 56.1983 80.5307 57.0446C80.5744 57.0058 80.7395 56.8724 80.8899 56.7269C82.4192 55.2454 84.6935 55.0708 86.3684 56.3099C88.0432 57.5489 88.5287 59.77 87.5311 61.6782C87.3903 61.945 87.2277 62.202 87.0529 62.4493C84.4848 66.1228 81.958 69.8278 79.3195 73.448C78.5112 74.5585 77.4213 75.4702 76.4116 76.4231C74.2755 78.4381 72.0473 80.3585 69.9768 82.4365C68.649 83.7677 67.5689 85.3316 67.3432 87.366C66.4281 87.4387 65.5324 87.509 64.3915 87.5987C64.5857 86.6555 64.6634 85.8166 64.9353 85.0503C65.9086 82.3152 67.8262 80.2421 69.8967 78.3144C71.5594 76.7674 73.3313 75.3368 74.9867 73.7826C75.9261 72.9 76.8218 71.9349 77.5742 70.8898C79.9117 67.648 82.1716 64.3503 84.4629 61.0721C84.5843 60.8975 84.7105 60.7277 84.8222 60.5483C85.2397 59.8839 85.3125 59.2341 84.6596 58.6764C84.0989 58.1987 83.3294 58.3273 82.7468 58.9989C81.2977 60.6696 79.8681 62.3572 78.4238 64.0327C74.8435 68.1935 76.1203 67.2285 71.205 68.9331C69.1491 69.646 67.0834 70.3419 65.0032 70.982C64.1318 71.2511 63.4303 71.6027 63.326 72.609H60.2943C60.5952 71.7676 60.7773 70.9868 61.1414 70.3055C62.0128 68.6785 62.9716 67.0975 63.8891 65.4972C64.3964 64.6122 64.3017 63.9454 63.6294 63.5186C62.9983 63.1185 62.3259 63.3004 61.7725 64.0763C60.0345 66.518 58.282 68.9525 56.5902 71.4257C54.7988 74.0444 54.5318 77.0802 54.4639 80.1233C54.4153 82.2716 54.5512 84.4248 54.5998 86.5755C54.6071 86.9053 54.5998 87.2375 54.5998 87.6836H54.6046ZM72.4623 65.2717C72.5157 65.3445 72.5691 65.4172 72.6225 65.4924C73.1541 65.1602 73.7609 64.9056 74.1979 64.4764C74.9285 63.7587 75.5596 62.9391 76.2174 62.1462C76.3849 61.945 76.5621 61.7025 76.6082 61.4552C76.9165 59.7918 77.2199 58.126 77.4432 56.4481C77.4796 56.1692 77.1106 55.837 76.931 55.5291C76.6082 55.7255 76.2781 55.9074 75.9698 56.128C75.8946 56.1814 75.8897 56.3511 75.8703 56.4675C75.3605 59.2947 74.2634 61.8965 72.8798 64.394C72.7221 64.6777 72.6007 64.9783 72.4623 65.2717Z" fill="#3A9C6F"></path>
        <path d="M68 15.1814C67.4126 14.4152 66.8883 13.729 66.3203 12.9895C67.0558 12.3542 67.7549 11.7504 68.5073 11.1006C69.1311 11.908 69.7137 12.6597 70.3739 13.5132C69.5656 14.0806 68.8156 14.6092 67.9976 15.1814H68Z" fill="#3A9C6F"></path>
        <path d="M41.5362 3.59099C41.3978 2.63079 41.2692 1.74576 41.1211 0.72494C42.1381 0.6328 43.0799 0.547934 44.1382 0.453369V3.36064C43.3469 3.43095 42.5095 3.5037 41.5362 3.58856V3.59099Z" fill="#3A9C6F"></path>
        <path d="M21.5164 46.4705C22.0892 47.2246 22.6135 47.9108 23.1888 48.6673C22.4606 49.2759 21.7591 49.8651 20.9702 50.5246C20.3561 49.722 19.7784 48.9679 19.123 48.1096C19.9143 47.5664 20.6692 47.0524 21.5164 46.4705Z" fill="#3A9C6F"></path>
        <path d="M27.1285 6.44751C27.728 7.2501 28.279 7.98965 28.8616 8.77284C28.1334 9.36933 27.4634 9.91732 26.7328 10.5162C26.0799 9.80093 25.456 9.11958 24.7812 8.38246C25.5871 7.71565 26.325 7.10946 27.1285 6.44751Z" fill="#3A9C6F"></path>
        <path d="M25.1983 50.8276C25.7784 51.3441 26.4095 51.9042 27.1207 52.5371C26.5382 53.2694 25.9653 53.9871 25.3148 54.8042C24.5405 54.1156 23.8147 53.4706 23.0234 52.7699C23.7783 52.0958 24.4507 51.4944 25.1959 50.8276H25.1983Z" fill="#3A9C6F"></path>
        <path d="M61.6001 5.12597C61.0443 6.00372 60.5613 6.76509 60.0491 7.57496C59.2384 7.11668 58.4859 6.69235 57.6582 6.2268C58.0806 5.37086 58.4883 4.54645 58.9398 3.63232C59.8379 4.13667 60.6681 4.60222 61.6001 5.12597Z" fill="#3A9C6F"></path>
        <path d="M69.4727 17.5281C70.3174 17.0528 71.1208 16.6018 71.9995 16.1096C72.4631 17.0407 72.8879 17.8967 73.3539 18.8326C72.434 19.2351 71.5941 19.6061 70.7057 19.9941C70.2785 19.1381 69.8926 18.3646 69.4751 17.5257L69.4727 17.5281Z" fill="#3A9C6F"></path>
        <path d="M21.5057 16.9417C21.0566 17.7952 20.6658 18.5347 20.2265 19.3713C19.3818 18.9833 18.5541 18.6002 17.6074 18.1637C18.0783 17.252 18.5225 16.3888 19.008 15.4529C19.8721 15.9669 20.6585 16.4349 21.5057 16.9417Z" fill="#3A9C6F"></path>
        <path d="M50.2423 0.824788C50.0748 1.84803 49.9316 2.73064 49.7762 3.68356C48.8708 3.589 48.0189 3.5017 47.0625 3.40229C47.1086 2.44209 47.1547 1.53524 47.2057 0.516846C48.2519 0.623534 49.1961 0.720524 50.2447 0.827213L50.2423 0.824788Z" fill="#3A9C6F"></path>
        <path d="M20.6953 12.9047C21.3652 12.0827 21.9527 11.3626 22.6177 10.5479C23.3605 11.2122 24.062 11.8402 24.7756 12.4804C24.1809 13.2126 23.6324 13.8891 23.0352 14.6263C22.2731 14.0662 21.5303 13.5206 20.6953 12.9047Z" fill="#3A9C6F"></path>
        <path d="M68.0371 45.3642C68.5007 44.5204 68.9158 43.7639 69.3697 42.9419C70.2338 43.359 71.0567 43.7566 71.9669 44.1955C71.479 45.1023 71.0276 45.9389 70.5251 46.8724C69.6853 46.3632 68.9012 45.888 68.0371 45.3642Z" fill="#3A9C6F"></path>
        <path d="M62.2729 55.7912C61.6782 54.9692 61.1514 54.2394 60.5762 53.4416C61.2849 52.8645 61.9743 52.3044 62.7219 51.6958C63.3506 52.4087 63.9623 53.1046 64.6371 53.8684C63.8579 54.5012 63.1151 55.105 62.2753 55.7888L62.2729 55.7912Z" fill="#3A9C6F"></path>
        <path d="M66.4805 47.6482C67.2912 48.2641 68.0048 48.8096 68.784 49.4037C68.1383 50.1845 67.5291 50.9192 66.8397 51.7509C66.131 51.0913 65.4586 50.4682 64.7207 49.7795C65.3057 49.0739 65.8688 48.3902 66.4805 47.6482Z" fill="#3A9C6F"></path>
        <path d="M27.7891 56.5911C28.374 55.6939 28.8498 54.9641 29.3644 54.176C30.1703 54.6392 30.9179 55.0708 31.7456 55.546C31.3111 56.3947 30.8912 57.2142 30.4203 58.1332C29.5173 57.6046 28.675 57.11 27.7891 56.5911Z" fill="#3A9C6F"></path>
        <path d="M29.6758 4.73997C30.6249 4.23805 31.4671 3.78948 32.3628 3.31665C32.7827 4.21381 33.176 5.04792 33.591 5.93537C32.7779 6.37183 32.0206 6.77918 31.1661 7.23746C30.6807 6.42032 30.2098 5.6347 29.6782 4.73997H29.6758Z" fill="#3A9C6F"></path>
        <path d="M53.2336 1.46924C54.2118 1.78445 55.1196 2.07542 56.1294 2.40034C55.7774 3.33629 55.4546 4.19707 55.1099 5.11363C54.2385 4.83236 53.4205 4.57048 52.5078 4.27467C52.7481 3.34356 52.9787 2.45126 53.2311 1.46924H53.2336Z" fill="#3A9C6F"></path>
        <path d="M33.207 59.4041C33.5954 58.4172 33.9231 57.5831 34.2678 56.7078C35.1465 57.0012 35.9426 57.2679 36.8698 57.5758C36.6198 58.473 36.3747 59.3556 36.0955 60.3594C35.1222 60.0369 34.2216 59.7387 33.207 59.4041Z" fill="#3A9C6F"></path>
        <path d="M42.1007 61.4286C41.057 61.305 40.1443 61.1959 39.0957 61.0722C39.2583 60.095 39.4064 59.1979 39.569 58.2207C40.489 58.3298 41.3385 58.4292 42.2876 58.5408C42.2269 59.4888 42.1687 60.3787 42.1007 61.4286Z" fill="#3A9C6F"></path>
        <path d="M17.5393 45.4859C17.0708 44.5015 16.6606 43.6383 16.2285 42.729C17.146 42.3459 17.9762 41.9991 18.884 41.6233C19.2821 42.4356 19.6632 43.2091 20.0952 44.0868C19.2772 44.5354 18.4689 44.9767 17.5393 45.4859Z" fill="#3A9C6F"></path>
        <path d="M64.399 10.977C63.6903 10.3636 63.0567 9.81316 62.3164 9.17302C62.9014 8.42378 63.4791 7.68423 64.1005 6.88892C64.8918 7.57027 65.6127 8.19585 66.4064 8.87721C65.7243 9.59008 65.0884 10.2545 64.399 10.977Z" fill="#3A9C6F"></path>
        <path d="M56.9887 58.8413C56.576 57.9272 56.1974 57.0834 55.7969 56.1959C56.6319 55.7667 57.4013 55.3691 58.246 54.9351C58.7315 55.7764 59.1951 56.5766 59.6951 57.4447C58.7703 57.9223 57.9183 58.3612 56.9887 58.8413Z" fill="#3A9C6F"></path>
        <path d="M53.2063 57.2048C53.5219 58.1384 53.801 58.9628 54.1335 59.9472C53.1675 60.2261 52.233 60.4928 51.2111 60.7886C50.9853 59.809 50.779 58.9119 50.5605 57.9614C51.4587 57.7043 52.2888 57.4667 53.2063 57.2048Z" fill="#3A9C6F"></path>
        <path d="M38.8038 4.10515C37.9251 4.3646 37.0999 4.60707 36.1751 4.88107C35.8546 3.97664 35.5488 3.11585 35.209 2.16051C36.2066 1.85984 37.112 1.58827 38.112 1.2876C38.3499 2.25749 38.5684 3.14738 38.8038 4.10515Z" fill="#3A9C6F"></path>
        <path d="M48.1785 61.2952C47.1299 61.38 46.2075 61.4528 45.1953 61.5352V58.6352C46.04 58.5649 46.8969 58.4946 47.8265 58.4194C47.9455 59.3845 48.0547 60.2744 48.1785 61.2952Z" fill="#3A9C6F"></path>
        <path d="M31.3418 30.937C31.3564 23.7137 37.2693 17.8531 44.5124 17.8846C51.6851 17.9137 57.5276 23.818 57.5106 31.0171C57.4961 38.2379 51.5783 44.1034 44.3401 44.0719C37.1698 44.0404 31.3273 38.1361 31.3418 30.937ZM44.4299 41.1622C50.0272 41.1622 54.6027 36.577 54.6027 30.9758C54.6027 25.3723 50.0248 20.7943 44.425 20.7968C38.8276 20.7968 34.2522 25.3795 34.2522 30.9807C34.2522 36.5818 38.8349 41.1622 44.4299 41.1622Z" fill="#3A9C6F"></path>
        <path d="M49.134 25.6804C49.9035 26.3278 50.6147 26.9267 51.355 27.5499C48.9204 30.4766 46.5465 33.345 44.1483 36.1917C43.5342 36.9215 42.7017 37.0525 42.0681 36.4439C40.5681 34.9987 39.1384 33.4784 37.6602 31.9702C38.3082 31.3252 38.9491 30.6875 39.6069 30.0353C40.6385 31.1046 41.6604 32.1666 42.7672 33.3135C44.9518 30.6948 46.998 28.2409 49.134 25.6828V25.6804Z" fill="#3A9C6F"></path>
    </g>
        <defs>
            <clipPath id="clip0_4876_2424">
                <rect width="87.2326" height="87.2326" fill="white" transform="translate(0.814453 0.453369)"></rect>
            </clipPath>
        </defs>
</svg>