<svg width="87" height="87" viewBox="0 0 87 87" fill="none" xmlns="http://www.w3.org/2000/svg">
    <path d="M82.2426 50.5923C82.0308 50.7511 81.7899 50.8666 81.5334 50.9323C81.277 50.998 81.0102 51.0126 80.7482 50.9751C80.4861 50.9377 80.234 50.849 80.0063 50.7142C79.7785 50.5793 79.5795 50.4009 79.4207 50.1891C77.7386 47.928 75.5491 46.0933 73.0285 44.833C70.5078 43.5727 67.7264 42.9218 64.9082 42.9329C64.3736 42.9329 63.8609 42.7205 63.4829 42.3425C63.1049 41.9645 62.8926 41.4518 62.8926 40.9173C62.8926 40.3827 63.1049 39.87 63.4829 39.492C63.8609 39.114 64.3736 38.9016 64.9082 38.9016C66.5417 38.9013 68.1425 38.4428 69.5285 37.5784C70.9146 36.7139 72.0304 35.4781 72.7494 34.0112C73.4683 32.5444 73.7614 30.9053 73.5955 29.2802C73.4296 27.6551 72.8113 26.1091 71.8109 24.8178C70.8104 23.5265 69.4678 22.5416 67.9357 21.975C66.4036 21.4085 64.7432 21.2829 63.1433 21.6127C61.5434 21.9424 60.068 22.7142 58.8847 23.8403C57.7014 24.9665 56.8577 26.402 56.4493 27.9837C56.3157 28.5013 55.9818 28.9447 55.5213 29.2162C55.0608 29.4877 54.5112 29.5652 53.9936 29.4315C53.4759 29.2979 53.0326 28.9641 52.7611 28.5036C52.4895 28.043 52.4121 27.4935 52.5457 26.9758C53.0524 25.0053 54.0227 23.1845 55.3758 21.665C56.7289 20.1456 58.4256 18.9716 60.3244 18.2408C62.2233 17.5101 64.2693 17.2438 66.2919 17.4642C68.3145 17.6846 70.2552 18.3852 71.9521 19.5077C73.649 20.6302 75.0531 22.1421 76.0472 23.9173C77.0413 25.6925 77.5968 27.6796 77.6672 29.7129C77.7376 31.7463 77.3209 33.7671 76.452 35.6068C75.583 37.4465 74.2869 39.0519 72.6717 40.2891C76.6464 41.7723 80.1093 44.3697 82.6457 47.7704C82.8045 47.9821 82.9201 48.2231 82.9858 48.4795C83.0515 48.7359 83.066 49.0028 83.0286 49.2648C82.9911 49.5268 82.9025 49.7789 82.7676 50.0067C82.6327 50.2345 82.4543 50.4334 82.2426 50.5923ZM63.9642 72.1595C64.0969 72.3886 64.183 72.6417 64.2178 72.9042C64.2527 73.1666 64.2354 73.4334 64.1671 73.6892C64.0988 73.945 63.9807 74.1849 63.8197 74.3951C63.6586 74.6052 63.4577 74.7816 63.2285 74.9141C62.9229 75.0933 62.5749 75.1872 62.2207 75.1863C61.8667 75.1865 61.5188 75.0935 61.2122 74.9165C60.9055 74.7396 60.6508 74.485 60.4738 74.1784C58.7218 71.21 56.2259 68.7498 53.2325 67.0406C50.2391 65.3315 46.8518 64.4326 43.4048 64.4326C39.9579 64.4326 36.5706 65.3315 33.5772 67.0406C30.5838 68.7498 28.0879 71.21 26.3359 74.1784C26.2099 74.4193 26.0364 74.6322 25.826 74.8043C25.6156 74.9764 25.3725 75.1042 25.1114 75.18C24.8504 75.2557 24.5767 75.2778 24.3068 75.2451C24.0369 75.2123 23.7765 75.1253 23.5411 74.9892C23.3058 74.8532 23.1004 74.6709 22.9373 74.4534C22.7742 74.236 22.6568 73.9877 22.5921 73.7237C22.5274 73.4597 22.5168 73.1853 22.5609 72.917C22.6051 72.6488 22.703 72.3922 22.8488 72.1628C25.5942 67.4458 29.8928 63.8288 35.0098 61.9302C32.2146 60.1153 30.0811 57.4455 28.9274 54.3189C27.7737 51.1923 27.6617 47.7765 28.608 44.5811C29.5544 41.3856 31.5085 38.5817 34.1787 36.5877C36.849 34.5936 40.0924 33.5162 43.425 33.5162C46.7577 33.5162 50.001 34.5936 52.6713 36.5877C55.3415 38.5817 57.2956 41.3856 58.242 44.5811C59.1883 47.7765 59.0763 51.1923 57.9226 54.3189C56.7689 57.4455 54.6354 60.1153 51.8402 61.9302C56.9429 63.8352 61.2275 67.4502 63.9642 72.1595ZM43.4082 60.4016C45.6672 60.4016 47.8755 59.7318 49.7539 58.4767C51.6322 57.2217 53.0961 55.4378 53.9606 53.3507C54.8251 51.2636 55.0513 48.9671 54.6106 46.7515C54.1699 44.5358 53.0821 42.5006 51.4847 40.9033C49.8873 39.3059 47.8521 38.2181 45.6365 37.7773C43.4209 37.3366 41.1243 37.5628 39.0372 38.4273C36.9502 39.2918 35.1663 40.7558 33.9113 42.6341C32.6562 44.5124 31.9863 46.7207 31.9863 48.9798C31.9863 52.009 33.1897 54.9142 35.3317 57.0562C37.4737 59.1983 40.3789 60.4016 43.4082 60.4016ZM23.9238 40.9173C23.9238 40.3827 23.7115 39.87 23.3335 39.492C22.9555 39.114 22.4428 38.9016 21.9082 38.9016C20.2748 38.9011 18.6744 38.4426 17.2885 37.5782C15.9026 36.7138 14.7869 35.4781 14.068 34.0114C13.3491 32.5448 13.0559 30.9059 13.2217 29.281C13.3874 27.6561 14.0054 26.1102 15.0056 24.8188C16.0058 23.5275 17.348 22.5425 18.8798 21.9757C20.4117 21.4089 22.0718 21.2829 23.6716 21.6122C25.2715 21.9414 26.7469 22.7127 27.9304 23.8383C29.114 24.964 29.9581 26.399 30.3671 27.9803C30.4333 28.2366 30.5493 28.4774 30.7085 28.6889C30.8677 28.9003 31.0671 29.0784 31.2951 29.2128C31.5231 29.3473 31.7754 29.4355 32.0375 29.4725C32.2997 29.5094 32.5665 29.4944 32.8228 29.4282C33.0791 29.362 33.3199 29.246 33.5314 29.0868C33.7429 28.9276 33.9209 28.7282 34.0554 28.5002C34.1898 28.2722 34.278 28.0199 34.315 27.7578C34.3519 27.4956 34.3369 27.2288 34.2707 26.9725C33.764 25.002 32.7937 23.1811 31.4406 21.6617C30.0875 20.1422 28.3909 18.9682 26.492 18.2375C24.5932 17.5067 22.5472 17.2405 20.5245 17.4608C18.5019 17.6812 16.5612 18.3819 14.8643 19.5044C13.1674 20.6269 11.7633 22.1387 10.7692 23.9139C9.77507 25.6891 9.21965 27.6762 9.14924 29.7096C9.07882 31.743 9.49546 33.7637 10.3644 35.6034C11.2334 37.4431 12.5295 39.0485 14.1447 40.2857C10.1696 41.7698 6.70666 44.3685 4.1707 47.7704C4.01189 47.9821 3.89633 48.2231 3.83064 48.4795C3.76495 48.7359 3.7504 49.0028 3.78784 49.2648C3.82527 49.5268 3.91395 49.7789 4.04881 50.0067C4.18367 50.2345 4.36207 50.4334 4.57383 50.5923C4.78558 50.7511 5.02655 50.8666 5.28296 50.9323C5.53938 50.998 5.80622 51.0126 6.06826 50.9751C6.33029 50.9377 6.58239 50.849 6.81015 50.7142C7.03792 50.5793 7.23689 50.4009 7.3957 50.1891C9.07776 47.928 11.2673 46.0933 13.788 44.833C16.3086 43.5727 19.09 42.9218 21.9082 42.9329C22.4428 42.9329 22.9555 42.7205 23.3335 42.3425C23.7115 41.9645 23.9238 41.4518 23.9238 40.9173Z" fill="#3A9C6F"></path>
</svg>