<svg width="87" height="87" viewBox="0 0 87 87" fill="none" xmlns="http://www.w3.org/2000/svg">
    <path d="M44.9885 0.255859C45.8488 0.49918 46.7362 0.674911 47.5628 1.00159C48.9096 1.53329 49.7024 2.48179 49.5966 4.0476C49.5538 4.68744 49.6416 5.34306 49.7272 5.9829C49.9614 7.71543 50.8894 8.74503 52.6123 9.04918C54.7677 9.42994 56.9479 9.66875 59.0988 10.0698C61.4501 10.5069 63.7497 11.1422 65.8217 12.4084C68.9704 14.3301 69.6708 17.1058 67.6934 20.2284C65.6461 23.4614 63.5943 26.6854 62.1033 30.2271C60.3758 34.3252 59.27 38.5518 59.8465 43.0374C60.0673 44.7519 60.4321 46.4957 61.0537 48.0998C61.9862 50.5015 63.2024 52.7905 64.2992 55.1268C64.3893 55.1201 64.4794 55.1133 64.5672 55.1066C66.6235 50.2379 68.6821 45.3715 70.7722 40.424C69.7451 39.8269 68.7204 39.2615 67.7271 38.6464C65.1371 37.04 64.1281 33.6764 65.3938 30.9525C65.8375 29.995 66.4051 29.6909 67.1551 30.004C67.9411 30.3307 68.1168 30.9841 67.6889 31.9821C66.9636 33.6764 67.4839 35.4787 69.0447 36.4926C69.8915 37.0423 70.7879 37.5132 71.7879 38.0922C72.7091 35.6635 74.2699 33.9399 76.9253 33.5524C78.4523 33.3294 79.896 33.6313 81.173 34.5302C82.7361 35.6274 83.6235 37.1392 83.7789 39.0497C83.905 40.6222 83.7969 40.8904 82.1865 44.0062C82.9275 44.7114 83.7428 45.3309 84.3622 46.106C86.3014 48.5369 86.4005 51.7091 84.664 54.4555C81.8555 58.9006 79.0109 63.3254 76.1956 67.766C74.8285 69.9198 75.1415 72.344 76.9546 73.9526C77.7924 74.6961 78.7924 75.0025 79.8825 75.0926C83.8577 75.4216 86.6077 78.4901 86.5334 82.5026C86.5154 83.4601 86.5446 84.4176 86.5131 85.3752C86.4861 86.2178 86.0356 86.6571 85.2721 86.6526C84.5108 86.6503 84.0672 86.2133 84.0334 85.3639C83.9928 84.2667 84.0491 83.165 83.9658 82.0723C83.7721 79.5265 82.164 77.821 79.6325 77.6159C75.0154 77.2442 72.7249 73.3916 72.8217 70.1947C72.8645 68.8091 73.3285 67.5655 74.074 66.4007C76.896 61.9961 79.7046 57.5848 82.5064 53.1668C84.1302 50.6074 83.432 47.852 80.7091 46.2907C80.5582 46.5002 80.396 46.7143 80.2474 46.9396C76.4929 52.6486 72.7429 58.3621 68.9749 64.0644C68.6708 64.524 68.601 64.9227 68.7361 65.468C69.4614 68.3765 69.7361 71.3459 69.7496 74.3379C69.7609 76.5683 68.3127 78.0373 66.0695 78.071C64.2722 78.0981 62.4704 78.1184 60.6754 78.0575C59.9254 78.0327 59.5177 78.3008 59.1258 78.9137C57.6371 81.232 56.0943 83.5165 54.565 85.81C53.9907 86.6706 53.3691 86.8846 52.6754 86.4814C52.0042 86.0939 51.8894 85.5374 52.2925 84.5663C53.0673 82.6964 53.8466 80.8287 54.6213 78.961C54.7272 78.7064 54.8195 78.4473 54.9434 78.1251H47.6799C47.6799 78.427 47.6799 78.7244 47.6799 79.0218C47.6799 81.0495 47.6844 83.0771 47.6777 85.1048C47.6732 86.1186 47.2272 86.6256 46.3894 86.6098C45.5831 86.594 45.1664 86.1074 45.1619 85.1296C45.1552 82.8248 45.1597 80.52 45.1597 78.1454H42.1169C42.1169 79.2133 42.1169 80.2767 42.1169 81.3378C42.1169 82.5477 42.1191 83.7598 42.1169 84.9696C42.1124 86.0871 41.7227 86.5963 40.8736 86.6075C40.0133 86.6188 39.6011 86.1074 39.5989 85.0057C39.5944 83.0073 39.5989 81.0067 39.5989 79.0083C39.5989 78.7312 39.5989 78.4563 39.5989 78.0823C37.8466 78.0823 36.1687 78.0778 34.493 78.0891C34.3714 78.0891 34.225 78.1679 34.1372 78.258C33.4593 78.9429 32.8669 79.7382 32.1079 80.315C28.1507 83.325 23.8512 85.632 18.8917 86.5107C18.4841 86.5827 18.0832 86.6819 17.6778 86.7675H14.1373C13.4774 86.6548 12.8129 86.5535 12.1553 86.425C8.44134 85.6996 5.17333 84.1608 2.72514 81.1621C1.49317 79.6526 0.840016 77.9426 0.880556 75.9555C0.927853 73.5921 0.903079 71.2265 0.889565 68.8632C0.869295 65.1503 0.959385 61.4284 0.774701 57.7223C0.398576 50.1996 3.49541 44.6708 10.0066 41.0458C14.1035 38.7658 18.6057 37.8534 23.2206 37.4253C24.5449 37.3014 25.876 37.2518 27.2453 37.1662C26.7566 34.0954 25.8692 31.2139 24.4435 28.5599C22.8354 25.5702 21.0516 22.6751 19.2656 19.7868C17.5472 17.0089 17.9751 14.5577 20.6688 12.7103C22.6507 11.3495 24.9187 10.6781 27.2408 10.241C29.7205 9.77464 32.2295 9.47049 34.7183 9.05144C36.3579 8.77432 37.2475 7.86863 37.5291 6.22847C37.6484 5.53906 37.7385 4.82037 37.6867 4.12871C37.5583 2.43673 38.439 1.48147 39.8827 0.936255C40.6529 0.643369 41.484 0.478903 42.2903 0.255859C43.1889 0.255859 44.0898 0.255859 44.9885 0.255859ZM21.2431 65.0534C21.3107 65.1458 21.3805 65.2382 21.448 65.3305C23.162 64.3325 24.9638 63.4583 26.5651 62.3048C28.4075 60.9823 30.0831 59.4255 31.8084 57.943C32.2723 57.5443 32.716 57.2897 33.3241 57.5375C33.93 57.7853 34.1304 58.2765 34.1304 58.8893C34.1304 59.1146 34.1304 59.3399 34.1304 59.5652C34.1304 64.5487 34.1304 69.5346 34.1304 74.5181C34.1304 74.8448 34.1575 75.1715 34.1732 75.5094C34.3647 75.5387 34.4728 75.5703 34.5809 75.5703C41.5493 75.5725 48.5178 75.5702 55.4862 75.586C55.9997 75.586 56.1439 75.3179 56.306 74.9282C58.538 69.5571 60.7902 64.1928 63.0019 58.8127C63.1371 58.486 63.0965 57.9791 62.9366 57.6592C62.065 55.9266 61.1258 54.2302 60.2182 52.5157C56.7835 46.0249 56.2902 39.3065 58.6123 32.3448C60.1123 27.8479 62.4118 23.7746 64.9704 19.8251C65.351 19.2371 65.7384 18.6401 66.0244 18.0047C66.5087 16.9188 66.3623 15.9951 65.4231 15.2764C64.5672 14.6208 63.601 14.0485 62.5988 13.6565C59.6754 12.5097 56.5785 12.0749 53.4772 11.7595C49.6687 11.372 47.8331 9.75436 47.243 6.10005C47.1394 5.46246 47.0606 4.80685 47.0966 4.16701C47.1371 3.44381 46.7858 3.20274 46.1709 3.19147C44.5718 3.16669 42.9705 3.15993 41.3714 3.14867C40.5403 3.14416 40.0606 3.45282 40.1687 4.39681C40.216 4.8091 40.1304 5.23942 40.0921 5.65847C39.7813 9.22041 38.0741 11.0814 34.5854 11.6288C33.0876 11.8631 31.5786 12.0141 30.0831 12.2664C27.5336 12.6945 24.9908 13.1766 22.6778 14.4135C20.4953 15.5828 20.2318 16.7115 21.5989 18.7459C21.8805 19.165 22.1733 19.5795 22.4548 20.0009C24.6733 23.333 26.6417 26.798 28.0539 30.5582C30.4638 36.9747 31.0043 43.4452 28.2611 49.8864C27.1417 52.5157 25.7048 55.0142 24.3692 57.5488C23.0967 59.9594 21.939 62.4129 21.2431 65.0579V65.0534ZM6.20036 63.1361C7.61476 60.9958 9.52467 59.5066 11.7071 58.3373C14.8445 56.6589 18.2183 55.7802 21.7251 55.3206C22.1552 55.2643 22.7701 55.1291 22.9458 54.8249C24.7251 51.7249 26.3196 48.5302 27.0877 44.9998C27.457 43.2988 27.6687 41.5753 27.5021 39.7256C26.0516 39.7909 24.671 39.854 23.2498 39.9193C23.2498 40.9962 23.2566 41.9245 23.2498 42.8504C23.2408 43.7854 22.7769 44.3171 21.9953 44.3126C21.2138 44.3104 20.7544 43.7832 20.7386 42.8369C20.7251 41.9988 20.7363 41.163 20.7363 40.2347C19.6485 40.451 18.6733 40.647 17.671 40.8453C17.671 43.3281 17.671 45.7185 17.671 48.1088C17.671 49.4606 17.3219 49.9946 16.4323 50.0126C15.5111 50.0306 15.153 49.4899 15.153 48.0773C15.153 45.946 15.153 43.817 15.153 41.5347C14.2589 41.8884 13.4909 42.2151 12.7071 42.4922C12.1575 42.686 11.9188 42.9924 11.9616 43.6097C12.0224 44.4771 11.9841 45.3535 11.9729 46.2276C11.9616 47.1378 11.5472 47.6245 10.7859 47.6583C9.99313 47.6921 9.49989 47.1784 9.46836 46.2524C9.44809 45.6734 9.46386 45.0944 9.46386 44.2968C8.80395 44.8375 8.32647 45.2566 7.82197 45.6373C7.02468 46.2389 6.69585 46.9689 6.73864 48.0165C6.82873 50.2086 6.77243 52.4075 6.76116 54.6019C6.75666 55.5977 6.349 56.0461 5.51567 56.0415C4.69811 56.037 4.2837 55.5729 4.26117 54.5884C4.24316 53.7998 4.25667 53.0113 4.25667 52.2228C4.25667 51.9164 4.25667 51.6122 4.25667 51.3058C3.39406 53.1285 3.23415 55.0074 3.24766 56.9315C3.26568 59.4458 4.04721 61.5636 6.20936 63.1339L6.20036 63.1361ZM3.39406 64.177C3.39406 64.5825 3.39406 64.8574 3.39406 65.1323C3.39406 68.6221 3.45037 72.112 3.37154 75.5995C3.32874 77.4898 3.97289 79.0488 5.31748 80.2632C6.32873 81.1756 7.44134 82.0543 8.6553 82.6401C13.1868 84.8254 17.8152 84.6858 22.4661 82.942C23.0629 82.7189 23.2679 82.4531 23.2633 81.8065C23.2318 77.1924 23.2476 72.5761 23.2453 67.962C23.2453 67.7254 23.2183 67.4889 23.2025 67.2208C22.2363 67.5542 21.3264 67.8358 20.4503 68.1963C20.2476 68.2797 20.0404 68.6199 20.0269 68.8519C19.9751 69.6923 20.0269 70.5394 19.9998 71.3842C19.9728 72.2629 19.4976 72.7518 18.7296 72.7473C17.9548 72.745 17.5089 72.2584 17.4954 71.3662C17.4818 70.5304 17.4931 69.6945 17.4931 68.8789H14.3197C14.3197 69.2439 14.3197 69.5481 14.3197 69.8522C14.3197 71.8776 14.3535 73.9053 14.2882 75.9307C14.2746 76.3318 13.9751 76.8927 13.6418 77.0662C13.2994 77.2465 12.6463 77.1946 12.3355 76.9626C12.0247 76.7305 11.8332 76.1583 11.8242 75.7302C11.7747 73.5358 11.8107 71.3414 11.7882 69.1448C11.7859 68.8857 11.6598 68.4599 11.4886 68.4013C10.6012 68.0927 9.68007 67.8764 8.66206 67.6015C8.66206 68.3472 8.68908 69.0164 8.6553 69.6855C8.61251 70.5169 8.14404 70.9652 7.39404 70.9607C6.64179 70.9562 6.19135 70.5011 6.17108 69.663C6.14855 68.7348 6.18684 67.8043 6.14855 66.8783C6.13729 66.6034 6.03819 66.2452 5.8445 66.083C5.10126 65.4477 4.30397 64.8777 3.39406 64.1793V64.177ZM59.8082 73.074C59.8623 73.1032 59.9141 73.1303 59.9682 73.1596C66.1551 63.7827 72.3442 54.4081 78.5559 44.9907C77.8915 44.6122 77.3622 44.3103 76.8127 43.9972C76.6348 44.2991 76.5041 44.5469 76.3487 44.779C75.9208 45.4211 75.3195 45.5788 74.6776 45.2228C74.0379 44.8668 73.8127 44.2518 74.164 43.5781C74.851 42.2579 75.5649 40.9512 76.3059 39.6602C76.6753 39.0181 77.3532 38.8739 77.9748 39.2164C78.592 39.5566 78.7879 40.1874 78.4793 40.8768C78.3465 41.172 78.1911 41.4581 78.0311 41.7758C78.6685 42.143 79.2451 42.4742 79.9163 42.8594C80.3194 42.1475 80.7879 41.5054 81.0694 40.789C81.9906 38.4526 80.1865 35.9338 77.6911 36.0352C76.137 36.0983 75.0604 36.8846 74.4546 38.322C70.2496 48.2823 66.0447 58.2427 61.8398 68.203C61.1551 69.8229 60.4839 71.4496 59.806 73.0717L59.8082 73.074ZM31.5741 61.6965C31.2588 61.9466 31.0539 62.12 30.8376 62.2778C29.3602 63.3434 27.8985 64.4338 26.3895 65.4544C25.9435 65.7563 25.7498 66.0312 25.7521 66.5832C25.7769 71.2513 25.7656 75.9172 25.7656 80.5854C25.7656 80.8219 25.7656 81.0585 25.7656 81.5879C27.6597 80.2925 29.3354 79.1322 31.0268 77.9967C31.4998 77.679 31.6372 77.2848 31.6349 76.7238C31.6147 72.0286 31.6237 67.3334 31.6214 62.636C31.6214 62.3679 31.5944 62.0998 31.5741 61.6942V61.6965ZM21.0742 58.076C16.9976 58.2337 9.9098 61.1783 8.38954 64.5645C8.4526 64.6163 8.51116 64.6794 8.58323 64.7177C8.75665 64.8101 8.93458 64.8934 9.11251 64.9723C11.4143 65.9816 13.8287 66.3759 16.3287 66.3218C18.2769 66.279 18.2161 66.2587 18.8062 64.4383C19.5044 62.2868 20.3197 60.1712 21.0742 58.076ZM66.8217 67.8606C66.7226 67.8426 66.6213 67.8268 66.5222 67.8088C64.8375 70.3479 63.1551 72.887 61.3781 75.568C63.1371 75.568 64.6731 75.5883 66.2114 75.5567C66.8195 75.5455 67.2564 75.1805 67.2271 74.5452C67.119 72.3147 66.9614 70.0888 66.824 67.8606H66.8217Z" fill="#3A9C6F"></path>
</svg>